<?xml version="1.0" encoding="UTF-8" standalone="no"?>
<!DOCTYPE svg PUBLIC "-//W3C//DTD SVG 1.1//EN"
 "http://www.w3.org/Graphics/SVG/1.1/DTD/svg11.dtd">
<!-- Generated by graphviz version 2.26.3 (20100126.1600)
 -->
<!-- Title: Awesome Pages: 1 -->
<svg width="2777pt" height="1054pt"
 viewBox="0.00 0.00 2777.00 1054.00" xmlns="http://www.w3.org/2000/svg" xmlns:xlink="http://www.w3.org/1999/xlink">
<g id="graph1" class="graph" transform="scale(1 1) rotate(0) translate(4 1050)">
<title>Awesome</title>
<polygon fill="white" stroke="white" points="-4,5 -4,-1050 2774,-1050 2774,5 -4,5"/>
<!-- node_0 -->
<g id="node1" class="node"><title>node_0</title>
<ellipse fill="none" stroke="black" cx="206" cy="-807" rx="205.975" ry="26.8701"/>
<text text-anchor="middle" x="206" y="-809.4" font-family="Times,serif" font-size="14.00">SampleTarget32!Proffy::Launcher::Finish@6112</text>
<text text-anchor="middle" x="206" y="-794.4" font-family="Times,serif" font-size="14.00">1</text>
</g>
<!-- node_1 -->
<g id="node2" class="node"><title>node_1</title>
<ellipse fill="none" stroke="black" cx="1821" cy="-1019" rx="193.247" ry="26.8701"/>
<text text-anchor="middle" x="1821" y="-1021.4" font-family="Times,serif" font-size="14.00">SampleTarget32!__tmainCRTStartup@26231</text>
<text text-anchor="middle" x="1821" y="-1006.4" font-family="Times,serif" font-size="14.00">0</text>
</g>
<!-- node_2 -->
<g id="node3" class="node"><title>node_2</title>
<ellipse fill="none" stroke="black" cx="1821" cy="-913" rx="128.901" ry="26.8701"/>
<text text-anchor="middle" x="1821" y="-915.4" font-family="Times,serif" font-size="14.00">SampleTarget32!main@4096</text>
<text text-anchor="middle" x="1821" y="-900.4" font-family="Times,serif" font-size="14.00">0</text>
</g>
<!-- node_1&#45;&gt;node_2 -->
<g id="edge2" class="edge"><title>node_1&#45;&gt;node_2</title>
<path fill="none" stroke="black" d="M1821,-991.977C1821,-979.367 1821,-964.149 1821,-950.452"/>
<polygon fill="black" stroke="black" points="1824.5,-950.342 1821,-940.342 1817.5,-950.342 1824.5,-950.342"/>
<text text-anchor="middle" x="1831.5" y="-960.9" font-family="Times,serif" font-size="14.00">103</text>
</g>
<!-- node_2&#45;&gt;node_0 -->
<g id="edge4" class="edge"><title>node_2&#45;&gt;node_0</title>
<path fill="none" stroke="black" d="M1693.38,-908.729C1447.03,-899.835 888.914,-876.532 421,-834 401.119,-832.193 380.241,-829.975 359.635,-827.594"/>
<polygon fill="black" stroke="black" points="359.886,-824.099 349.547,-826.413 359.072,-831.052 359.886,-824.099"/>
<text text-anchor="middle" x="847.5" y="-854.9" font-family="Times,serif" font-size="14.00">1</text>
</g>
<!-- node_15 -->
<g id="node16" class="node"><title>node_15</title>
<ellipse fill="none" stroke="black" cx="904" cy="-807" rx="473.762" ry="26.8701"/>
<text text-anchor="middle" x="904" y="-809.4" font-family="Times,serif" font-size="14.00">SampleTarget32!std::random_shuffle&lt;std::_Vector_iterator&lt;std::_Vector_val&lt;int,std::allocator&lt;int&gt; &gt; &gt; &gt;@21584</text>
<text text-anchor="middle" x="904" y="-794.4" font-family="Times,serif" font-size="14.00">9</text>
</g>
<!-- node_2&#45;&gt;node_15 -->
<g id="edge6" class="edge"><title>node_2&#45;&gt;node_15</title>
<path fill="none" stroke="black" d="M1707.64,-899.896C1562.48,-883.116 1307.77,-853.674 1123.96,-832.426"/>
<polygon fill="black" stroke="black" points="1124.22,-828.933 1113.89,-831.262 1123.42,-835.887 1124.22,-828.933"/>
<text text-anchor="middle" x="1425" y="-854.9" font-family="Times,serif" font-size="14.00">21</text>
</g>
<!-- node_16 -->
<g id="node17" class="node"><title>node_16</title>
<ellipse fill="none" stroke="black" cx="1821" cy="-807" rx="425.178" ry="26.8701"/>
<text text-anchor="middle" x="1821" y="-809.4" font-family="Times,serif" font-size="14.00">SampleTarget32!std::sort&lt;std::_Vector_iterator&lt;std::_Vector_val&lt;int,std::allocator&lt;int&gt; &gt; &gt; &gt;@21664</text>
<text text-anchor="middle" x="1821" y="-794.4" font-family="Times,serif" font-size="14.00">0</text>
</g>
<!-- node_2&#45;&gt;node_16 -->
<g id="edge8" class="edge"><title>node_2&#45;&gt;node_16</title>
<path fill="none" stroke="black" d="M1821,-885.977C1821,-873.367 1821,-858.149 1821,-844.452"/>
<polygon fill="black" stroke="black" points="1824.5,-844.342 1821,-834.342 1817.5,-844.342 1824.5,-844.342"/>
<text text-anchor="middle" x="1828" y="-854.9" font-family="Times,serif" font-size="14.00">81</text>
</g>
<!-- node_3 -->
<g id="node4" class="node"><title>node_3</title>
<ellipse fill="none" stroke="black" cx="2308" cy="-489" rx="239.002" ry="26.8701"/>
<text text-anchor="middle" x="2308" y="-491.4" font-family="Times,serif" font-size="14.00">SampleTarget32!std::_Insertion_sort1&lt;int *,int&gt;@24880</text>
<text text-anchor="middle" x="2308" y="-476.4" font-family="Times,serif" font-size="14.00">10</text>
</g>
<!-- node_7 -->
<g id="node8" class="node"><title>node_7</title>
<ellipse fill="none" stroke="black" cx="2480" cy="-345" rx="253.851" ry="26.8701"/>
<text text-anchor="middle" x="2480" y="-347.4" font-family="Times,serif" font-size="14.00">SampleTarget32!std::_Move_backward&lt;int *,int *&gt;@25552</text>
<text text-anchor="middle" x="2480" y="-332.4" font-family="Times,serif" font-size="14.00">1</text>
</g>
<!-- node_3&#45;&gt;node_7 -->
<g id="edge10" class="edge"><title>node_3&#45;&gt;node_7</title>
<path fill="none" stroke="black" d="M2468.92,-468.993C2493.98,-462.706 2514.43,-454.545 2523,-444 2538.13,-425.372 2531.93,-412.276 2523,-390 2521.61,-386.537 2519.81,-383.189 2517.75,-379.988"/>
<polygon fill="black" stroke="black" points="2520.5,-377.824 2511.73,-371.883 2514.88,-381.998 2520.5,-377.824"/>
<text text-anchor="middle" x="2535.5" y="-411.9" font-family="Times,serif" font-size="14.00">4</text>
</g>
<!-- node_12 -->
<g id="node13" class="node"><title>node_12</title>
<ellipse fill="none" stroke="black" cx="1821" cy="-27" rx="202.94" ry="26.8701"/>
<text text-anchor="middle" x="1821" y="-29.4" font-family="Times,serif" font-size="14.00">SampleTarget32!std::forward&lt;int * &amp;&gt;@25200</text>
<text text-anchor="middle" x="1821" y="-14.4" font-family="Times,serif" font-size="14.00">11</text>
</g>
<!-- node_3&#45;&gt;node_12 -->
<g id="edge12" class="edge"><title>node_3&#45;&gt;node_12</title>
<path fill="none" stroke="black" d="M2467.43,-468.856C2598.24,-447.721 2762,-408.567 2762,-345 2762,-345 2762,-345 2762,-133 2762,-60.1255 2310.59,-37.3491 2033.08,-30.2324"/>
<polygon fill="black" stroke="black" points="2032.95,-26.7283 2022.87,-29.9757 2032.78,-33.7261 2032.95,-26.7283"/>
<text text-anchor="middle" x="2765.5" y="-233.9" font-family="Times,serif" font-size="14.00">2</text>
</g>
<!-- node_4 -->
<g id="node5" class="node"><title>node_4</title>
<ellipse fill="none" stroke="black" cx="2308" cy="-595" rx="219.91" ry="26.8701"/>
<text text-anchor="middle" x="2308" y="-597.4" font-family="Times,serif" font-size="14.00">SampleTarget32!std::_Insertion_sort&lt;int *&gt;@24304</text>
<text text-anchor="middle" x="2308" y="-582.4" font-family="Times,serif" font-size="14.00">0</text>
</g>
<!-- node_4&#45;&gt;node_3 -->
<g id="edge14" class="edge"><title>node_4&#45;&gt;node_3</title>
<path fill="none" stroke="black" d="M2308,-567.977C2308,-555.367 2308,-540.149 2308,-526.452"/>
<polygon fill="black" stroke="black" points="2311.5,-526.342 2308,-516.342 2304.5,-526.342 2311.5,-526.342"/>
<text text-anchor="middle" x="2315" y="-536.9" font-family="Times,serif" font-size="14.00">16</text>
</g>
<!-- node_5 -->
<g id="node6" class="node"><title>node_5</title>
<ellipse fill="none" stroke="black" cx="1597" cy="-345" rx="188.798" ry="26.8701"/>
<text text-anchor="middle" x="1597" y="-347.4" font-family="Times,serif" font-size="14.00">SampleTarget32!std::_Med3&lt;int *&gt;@25104</text>
<text text-anchor="middle" x="1597" y="-332.4" font-family="Times,serif" font-size="14.00">1</text>
</g>
<!-- node_13 -->
<g id="node14" class="node"><title>node_13</title>
<ellipse fill="none" stroke="black" cx="1821" cy="-239" rx="219.91" ry="26.8701"/>
<text text-anchor="middle" x="1821" y="-241.4" font-family="Times,serif" font-size="14.00">SampleTarget32!std::iter_swap&lt;int *,int *&gt;@23488</text>
<text text-anchor="middle" x="1821" y="-226.4" font-family="Times,serif" font-size="14.00">7</text>
</g>
<!-- node_5&#45;&gt;node_13 -->
<g id="edge16" class="edge"><title>node_5&#45;&gt;node_13</title>
<path fill="none" stroke="black" d="M1651.8,-319.069C1683.41,-304.111 1723.33,-285.22 1756.45,-269.545"/>
<polygon fill="black" stroke="black" points="1758.06,-272.656 1765.6,-265.214 1755.07,-266.328 1758.06,-272.656"/>
<text text-anchor="middle" x="1726.5" y="-286.9" font-family="Times,serif" font-size="14.00">1</text>
</g>
<!-- node_6 -->
<g id="node7" class="node"><title>node_6</title>
<ellipse fill="none" stroke="black" cx="1597" cy="-489" rx="196.075" ry="26.8701"/>
<text text-anchor="middle" x="1597" y="-491.4" font-family="Times,serif" font-size="14.00">SampleTarget32!std::_Median&lt;int *&gt;@24432</text>
<text text-anchor="middle" x="1597" y="-476.4" font-family="Times,serif" font-size="14.00">1</text>
</g>
<!-- node_6&#45;&gt;node_5 -->
<g id="edge18" class="edge"><title>node_6&#45;&gt;node_5</title>
<path fill="none" stroke="black" d="M1597,-461.915C1597,-439.53 1597,-407.503 1597,-382.627"/>
<polygon fill="black" stroke="black" points="1600.5,-382.453 1597,-372.453 1593.5,-382.453 1600.5,-382.453"/>
<text text-anchor="middle" x="1600.5" y="-411.9" font-family="Times,serif" font-size="14.00">2</text>
</g>
<!-- node_8 -->
<g id="node9" class="node"><title>node_8</title>
<ellipse fill="none" stroke="black" cx="2472" cy="-239" rx="253.851" ry="26.8701"/>
<text text-anchor="middle" x="2472" y="-241.4" font-family="Times,serif" font-size="14.00">SampleTarget32!std::_Move_backward&lt;int *,int *&gt;@25824</text>
<text text-anchor="middle" x="2472" y="-226.4" font-family="Times,serif" font-size="14.00">3</text>
</g>
<!-- node_7&#45;&gt;node_8 -->
<g id="edge20" class="edge"><title>node_7&#45;&gt;node_8</title>
<path fill="none" stroke="black" d="M2477.96,-317.977C2477.01,-305.367 2475.86,-290.149 2474.83,-276.452"/>
<polygon fill="black" stroke="black" points="2478.31,-276.05 2474.06,-266.342 2471.33,-276.577 2478.31,-276.05"/>
<text text-anchor="middle" x="2480.5" y="-286.9" font-family="Times,serif" font-size="14.00">3</text>
</g>
<!-- node_9 -->
<g id="node10" class="node"><title>node_9</title>
<ellipse fill="none" stroke="black" cx="904" cy="-701" rx="244.866" ry="26.8701"/>
<text text-anchor="middle" x="904" y="-703.4" font-family="Times,serif" font-size="14.00">SampleTarget32!std::_Random_shuffle&lt;int *,int&gt;@22640</text>
<text text-anchor="middle" x="904" y="-688.4" font-family="Times,serif" font-size="14.00">3</text>
</g>
<!-- node_9&#45;&gt;node_13 -->
<g id="edge22" class="edge"><title>node_9&#45;&gt;node_13</title>
<path fill="none" stroke="black" d="M1001.01,-676.148C1066.1,-656.528 1140,-627.171 1140,-595 1140,-595 1140,-595 1140,-345 1140,-296.499 1413.17,-266.914 1613.49,-251.74"/>
<polygon fill="black" stroke="black" points="1613.86,-255.222 1623.57,-250.984 1613.34,-248.242 1613.86,-255.222"/>
<text text-anchor="middle" x="1143.5" y="-483.9" font-family="Times,serif" font-size="14.00">9</text>
</g>
<!-- node_10 -->
<g id="node11" class="node"><title>node_10</title>
<ellipse fill="none" stroke="black" cx="1821" cy="-701" rx="195.161" ry="26.8701"/>
<text text-anchor="middle" x="1821" y="-703.4" font-family="Times,serif" font-size="14.00">SampleTarget32!std::_Sort&lt;int *,int&gt;@22816</text>
<text text-anchor="middle" x="1821" y="-688.4" font-family="Times,serif" font-size="14.00">0</text>
</g>
<!-- node_10&#45;&gt;node_4 -->
<g id="edge24" class="edge"><title>node_10&#45;&gt;node_4</title>
<path fill="none" stroke="black" d="M1925.77,-678.195C2003.25,-661.332 2108.85,-638.348 2189.42,-620.811"/>
<polygon fill="black" stroke="black" points="2190.59,-624.138 2199.61,-618.591 2189.1,-617.298 2190.59,-624.138"/>
<text text-anchor="middle" x="2101" y="-642.9" font-family="Times,serif" font-size="14.00">16</text>
</g>
<!-- node_10&#45;&gt;node_10 -->
<g id="edge26" class="edge"><title>node_10&#45;&gt;node_10</title>
<path fill="none" stroke="black" d="M2008.29,-708.572C2024.13,-706.952 2034,-704.428 2034,-701 2034,-698.376 2028.21,-696.281 2018.39,-694.716"/>
<polygon fill="black" stroke="black" points="2018.65,-691.221 2008.29,-693.428 2017.76,-698.165 2018.65,-691.221"/>
<text text-anchor="middle" x="2044.5" y="-695.9" font-family="Times,serif" font-size="14.00">145</text>
</g>
<!-- node_11 -->
<g id="node12" class="node"><title>node_11</title>
<ellipse fill="none" stroke="black" cx="1821" cy="-595" rx="248.902" ry="26.8701"/>
<text text-anchor="middle" x="1821" y="-597.4" font-family="Times,serif" font-size="14.00">SampleTarget32!std::_Unguarded_partition&lt;int *&gt;@23584</text>
<text text-anchor="middle" x="1821" y="-582.4" font-family="Times,serif" font-size="14.00">40</text>
</g>
<!-- node_10&#45;&gt;node_11 -->
<g id="edge28" class="edge"><title>node_10&#45;&gt;node_11</title>
<path fill="none" stroke="black" d="M1821,-673.977C1821,-661.367 1821,-646.149 1821,-632.452"/>
<polygon fill="black" stroke="black" points="1824.5,-632.342 1821,-622.342 1817.5,-632.342 1824.5,-632.342"/>
<text text-anchor="middle" x="1828" y="-642.9" font-family="Times,serif" font-size="14.00">65</text>
</g>
<!-- node_11&#45;&gt;node_6 -->
<g id="edge30" class="edge"><title>node_11&#45;&gt;node_6</title>
<path fill="none" stroke="black" d="M1765.34,-568.662C1733.72,-553.697 1693.99,-534.899 1661.08,-519.322"/>
<polygon fill="black" stroke="black" points="1662.52,-516.133 1651.98,-515.019 1659.53,-522.46 1662.52,-516.133"/>
<text text-anchor="middle" x="1726.5" y="-536.9" font-family="Times,serif" font-size="14.00">3</text>
</g>
<!-- node_11&#45;&gt;node_13 -->
<g id="edge32" class="edge"><title>node_11&#45;&gt;node_13</title>
<path fill="none" stroke="black" d="M1819.9,-567.81C1818.45,-528.553 1816.16,-453.713 1817,-390 1817.51,-351.179 1818.77,-306.76 1819.74,-276.199"/>
<polygon fill="black" stroke="black" points="1823.24,-276.108 1820.07,-266 1816.25,-275.882 1823.24,-276.108"/>
<text text-anchor="middle" x="1824" y="-411.9" font-family="Times,serif" font-size="14.00">21</text>
</g>
<!-- node_14 -->
<g id="node15" class="node"><title>node_14</title>
<ellipse fill="none" stroke="black" cx="2181" cy="-417" rx="340.825" ry="26.8701"/>
<text text-anchor="middle" x="2181" y="-419.4" font-family="Times,serif" font-size="14.00">SampleTarget32!std::pair&lt;int *,int *&gt;::pair&lt;int *,int *&gt;&lt;int * &amp;,int * &amp;&gt;@24656</text>
<text text-anchor="middle" x="2181" y="-404.4" font-family="Times,serif" font-size="14.00">0</text>
</g>
<!-- node_11&#45;&gt;node_14 -->
<g id="edge34" class="edge"><title>node_11&#45;&gt;node_14</title>
<path fill="none" stroke="black" d="M1864.44,-568.186C1911.56,-539.738 1989.49,-494.501 2060,-462 2071.24,-456.818 2083.27,-451.777 2095.21,-447.057"/>
<polygon fill="black" stroke="black" points="2096.71,-450.232 2104.76,-443.345 2094.17,-443.708 2096.71,-450.232"/>
<text text-anchor="middle" x="1923.5" y="-536.9" font-family="Times,serif" font-size="14.00">1</text>
</g>
<!-- node_17 -->
<g id="node18" class="node"><title>node_17</title>
<ellipse fill="none" stroke="black" cx="1821" cy="-133" rx="173.241" ry="26.8701"/>
<text text-anchor="middle" x="1821" y="-135.4" font-family="Times,serif" font-size="14.00">SampleTarget32!std::swap&lt;int&gt;@23520</text>
<text text-anchor="middle" x="1821" y="-120.4" font-family="Times,serif" font-size="14.00">16</text>
</g>
<!-- node_13&#45;&gt;node_17 -->
<g id="edge36" class="edge"><title>node_13&#45;&gt;node_17</title>
<path fill="none" stroke="black" d="M1821,-211.977C1821,-199.367 1821,-184.149 1821,-170.452"/>
<polygon fill="black" stroke="black" points="1824.5,-170.342 1821,-160.342 1817.5,-170.342 1824.5,-170.342"/>
<text text-anchor="middle" x="1828" y="-180.9" font-family="Times,serif" font-size="14.00">24</text>
</g>
<!-- node_14&#45;&gt;node_12 -->
<g id="edge38" class="edge"><title>node_14&#45;&gt;node_12</title>
<path fill="none" stroke="black" d="M2162.23,-389.561C2147.33,-365.095 2129,-327.727 2129,-292 2129,-292 2129,-292 2129,-133 2129,-94.6214 2042.42,-67.1414 1961.06,-49.792"/>
<polygon fill="black" stroke="black" points="1961.68,-46.345 1951.17,-47.7263 1960.25,-53.1971 1961.68,-46.345"/>
<text text-anchor="middle" x="2132.5" y="-233.9" font-family="Times,serif" font-size="14.00">1</text>
</g>
<!-- node_15&#45;&gt;node_9 -->
<g id="edge40" class="edge"><title>node_15&#45;&gt;node_9</title>
<path fill="none" stroke="black" d="M904,-779.977C904,-767.367 904,-752.149 904,-738.452"/>
<polygon fill="black" stroke="black" points="907.5,-738.342 904,-728.342 900.5,-738.342 907.5,-738.342"/>
<text text-anchor="middle" x="911" y="-748.9" font-family="Times,serif" font-size="14.00">12</text>
</g>
<!-- node_16&#45;&gt;node_10 -->
<g id="edge42" class="edge"><title>node_16&#45;&gt;node_10</title>
<path fill="none" stroke="black" d="M1821,-779.977C1821,-767.367 1821,-752.149 1821,-738.452"/>
<polygon fill="black" stroke="black" points="1824.5,-738.342 1821,-728.342 1817.5,-738.342 1824.5,-738.342"/>
<text text-anchor="middle" x="1828" y="-748.9" font-family="Times,serif" font-size="14.00">81</text>
</g>
<!-- node_17&#45;&gt;node_12 -->
<g id="edge44" class="edge"><title>node_17&#45;&gt;node_12</title>
<path fill="none" stroke="black" d="M1821,-105.977C1821,-93.3667 1821,-78.1491 1821,-64.4516"/>
<polygon fill="black" stroke="black" points="1824.5,-64.3417 1821,-54.3418 1817.5,-64.3418 1824.5,-64.3417"/>
<text text-anchor="middle" x="1824.5" y="-74.9" font-family="Times,serif" font-size="14.00">8</text>
</g>
</g>
</svg>
